# xmcd
#
# Track frame offsets:
# 150
# 23452
# 36390
# 56265
# 73102
# 104597
# 126500
# 149525
# 168127
#
# Disc length: 2707 seconds
#
#
# Revision: 4
# Processed by: cddbd v1.5.2PL0 Copyright (c) Steve Scherf et al.
# Submitted via: FreeRIP 2.951 
#
DISCID=7e0a9109
DTITLE=Hobo Blues Band - Vissza a 66-os úton
DYEAR=1995
DGENRE=Blues
TTITLE0=Vissza a 66-os úton
TTITLE1=Jobb az úton nõ nélkül
TTITLE2=Nincs Hollywood Blues
TTITLE3=Amerika az enyém
TTITLE4=Vidéki angyal
TTITLE5=Az út vadabb felén
TTITLE6=Chicago vár
TTITLE7=Rock and roll rádió
TTITLE8=Nem lehet két hazád
EXTD=Track names with CORRECT Hungarian letters
EXTT0=
EXTT1=
EXTT2=
EXTT3=
EXTT4=
EXTT5=
EXTT6=
EXTT7=
EXTT8=
PLAYORDER=
